<svg xmlns="http://www.w3.org/2000/svg" version="1.1" xmlns:xlink="http://www.w3.org/1999/xlink" xmlns:svgjs="http://svgjs.dev/svgjs" viewBox="0 0 640 800"><symbol id="SvgjsSymbol1003"><polygon points="0,12.5 25,0 50,12.5 25,25"></polygon></symbol><symbol id="SvgjsSymbol1004"><polygon points="0,12.5 25,25 25,50 0,37.5"></polygon></symbol><symbol id="SvgjsSymbol1005"><polygon points="25,25 50,12.5 50,37.5 25,50"></polygon></symbol><g shape-rendering="crispEdges"><g><use xlink:href="#SvgjsSymbol1003" x="300" y="75" fill="hsl(212, 72%, 59%)"></use><use xlink:href="#SvgjsSymbol1004" x="300" y="75" fill="#84c1ff"></use><use xlink:href="#SvgjsSymbol1005" x="300" y="75" fill="#0064b0"></use></g><g><use xlink:href="#SvgjsSymbol1003" x="300" y="125" fill="hsl(212, 72%, 59%)"></use><use xlink:href="#SvgjsSymbol1004" x="300" y="125" fill="#84c1ff"></use><use xlink:href="#SvgjsSymbol1005" x="300" y="125" fill="#0064b0"></use></g><g><use xlink:href="#SvgjsSymbol1003" x="250" y="75" fill="hsl(212, 72%, 59%)"></use><use xlink:href="#SvgjsSymbol1004" x="250" y="75" fill="#84c1ff"></use><use xlink:href="#SvgjsSymbol1005" x="250" y="75" fill="#0064b0"></use></g><g><use xlink:href="#SvgjsSymbol1003" x="350" y="75" fill="hsl(212, 72%, 59%)"></use><use xlink:href="#SvgjsSymbol1004" x="350" y="75" fill="#84c1ff"></use><use xlink:href="#SvgjsSymbol1005" x="350" y="75" fill="#0064b0"></use></g><g><use xlink:href="#SvgjsSymbol1003" x="275" y="87.5" fill="hsl(212, 72%, 59%)"></use><use xlink:href="#SvgjsSymbol1004" x="275" y="87.5" fill="#84c1ff"></use><use xlink:href="#SvgjsSymbol1005" x="275" y="87.5" fill="#0064b0"></use></g><g><use xlink:href="#SvgjsSymbol1003" x="325" y="87.5" fill="hsl(212, 72%, 59%)"></use><use xlink:href="#SvgjsSymbol1004" x="325" y="87.5" fill="#84c1ff"></use><use xlink:href="#SvgjsSymbol1005" x="325" y="87.5" fill="#0064b0"></use></g><g><use xlink:href="#SvgjsSymbol1003" x="300" y="100" fill="hsl(212, 72%, 59%)"></use><use xlink:href="#SvgjsSymbol1004" x="300" y="100" fill="#84c1ff"></use><use xlink:href="#SvgjsSymbol1005" x="300" y="100" fill="#0064b0"></use></g><g><use xlink:href="#SvgjsSymbol1003" x="275" y="162.5" fill="hsl(212, 72%, 59%)"></use><use xlink:href="#SvgjsSymbol1004" x="275" y="162.5" fill="#84c1ff"></use><use xlink:href="#SvgjsSymbol1005" x="275" y="162.5" fill="#0064b0"></use></g><g><use xlink:href="#SvgjsSymbol1003" x="325" y="162.5" fill="hsl(212, 72%, 59%)"></use><use xlink:href="#SvgjsSymbol1004" x="325" y="162.5" fill="#84c1ff"></use><use xlink:href="#SvgjsSymbol1005" x="325" y="162.5" fill="#0064b0"></use></g><g><use xlink:href="#SvgjsSymbol1003" x="300" y="175" fill="hsl(212, 72%, 59%)"></use><use xlink:href="#SvgjsSymbol1004" x="300" y="175" fill="#84c1ff"></use><use xlink:href="#SvgjsSymbol1005" x="300" y="175" fill="#0064b0"></use></g><g><use xlink:href="#SvgjsSymbol1003" x="250" y="175" fill="hsl(212, 72%, 59%)"></use><use xlink:href="#SvgjsSymbol1004" x="250" y="175" fill="#84c1ff"></use><use xlink:href="#SvgjsSymbol1005" x="250" y="175" fill="#0064b0"></use></g><g><use xlink:href="#SvgjsSymbol1003" x="350" y="175" fill="hsl(212, 72%, 59%)"></use><use xlink:href="#SvgjsSymbol1004" x="350" y="175" fill="#84c1ff"></use><use xlink:href="#SvgjsSymbol1005" x="350" y="175" fill="#0064b0"></use></g><g><use xlink:href="#SvgjsSymbol1003" x="250" y="50" fill="hsl(212, 72%, 59%)"></use><use xlink:href="#SvgjsSymbol1004" x="250" y="50" fill="#84c1ff"></use><use xlink:href="#SvgjsSymbol1005" x="250" y="50" fill="#0064b0"></use></g><g><use xlink:href="#SvgjsSymbol1003" x="350" y="50" fill="hsl(212, 72%, 59%)"></use><use xlink:href="#SvgjsSymbol1004" x="350" y="50" fill="#84c1ff"></use><use xlink:href="#SvgjsSymbol1005" x="350" y="50" fill="#0064b0"></use></g><g><use xlink:href="#SvgjsSymbol1003" x="225" y="187.5" fill="hsl(212, 72%, 59%)"></use><use xlink:href="#SvgjsSymbol1004" x="225" y="187.5" fill="#84c1ff"></use><use xlink:href="#SvgjsSymbol1005" x="225" y="187.5" fill="#0064b0"></use></g><g><use xlink:href="#SvgjsSymbol1003" x="375" y="187.5" fill="hsl(212, 72%, 59%)"></use><use xlink:href="#SvgjsSymbol1004" x="375" y="187.5" fill="#84c1ff"></use><use xlink:href="#SvgjsSymbol1005" x="375" y="187.5" fill="#0064b0"></use></g><g><use xlink:href="#SvgjsSymbol1003" x="225" y="162.5" fill="hsl(212, 72%, 59%)"></use><use xlink:href="#SvgjsSymbol1004" x="225" y="162.5" fill="#84c1ff"></use><use xlink:href="#SvgjsSymbol1005" x="225" y="162.5" fill="#0064b0"></use></g><g><use xlink:href="#SvgjsSymbol1003" x="375" y="162.5" fill="hsl(212, 72%, 59%)"></use><use xlink:href="#SvgjsSymbol1004" x="375" y="162.5" fill="#84c1ff"></use><use xlink:href="#SvgjsSymbol1005" x="375" y="162.5" fill="#0064b0"></use></g><g><use xlink:href="#SvgjsSymbol1003" x="275" y="187.5" fill="hsl(212, 72%, 59%)"></use><use xlink:href="#SvgjsSymbol1004" x="275" y="187.5" fill="#84c1ff"></use><use xlink:href="#SvgjsSymbol1005" x="275" y="187.5" fill="#0064b0"></use></g><g><use xlink:href="#SvgjsSymbol1003" x="325" y="187.5" fill="hsl(212, 72%, 59%)"></use><use xlink:href="#SvgjsSymbol1004" x="325" y="187.5" fill="#84c1ff"></use><use xlink:href="#SvgjsSymbol1005" x="325" y="187.5" fill="#0064b0"></use></g><g><use xlink:href="#SvgjsSymbol1003" x="300" y="200" fill="hsl(212, 72%, 59%)"></use><use xlink:href="#SvgjsSymbol1004" x="300" y="200" fill="#84c1ff"></use><use xlink:href="#SvgjsSymbol1005" x="300" y="200" fill="#0064b0"></use></g><g><use xlink:href="#SvgjsSymbol1003" x="275" y="212.5" fill="hsl(212, 72%, 59%)"></use><use xlink:href="#SvgjsSymbol1004" x="275" y="212.5" fill="#84c1ff"></use><use xlink:href="#SvgjsSymbol1005" x="275" y="212.5" fill="#0064b0"></use></g><g><use xlink:href="#SvgjsSymbol1003" x="325" y="212.5" fill="hsl(212, 72%, 59%)"></use><use xlink:href="#SvgjsSymbol1004" x="325" y="212.5" fill="#84c1ff"></use><use xlink:href="#SvgjsSymbol1005" x="325" y="212.5" fill="#0064b0"></use></g><g><use xlink:href="#SvgjsSymbol1003" x="300" y="225" fill="hsl(212, 72%, 59%)"></use><use xlink:href="#SvgjsSymbol1004" x="300" y="225" fill="#84c1ff"></use><use xlink:href="#SvgjsSymbol1005" x="300" y="225" fill="#0064b0"></use></g><g><use xlink:href="#SvgjsSymbol1003" x="300" y="200" fill="hsl(212, 72%, 59%)"></use><use xlink:href="#SvgjsSymbol1004" x="300" y="200" fill="#84c1ff"></use><use xlink:href="#SvgjsSymbol1005" x="300" y="200" fill="#0064b0"></use></g><g><use xlink:href="#SvgjsSymbol1003" x="275" y="262.5" fill="hsl(212, 72%, 59%)"></use><use xlink:href="#SvgjsSymbol1004" x="275" y="262.5" fill="#84c1ff"></use><use xlink:href="#SvgjsSymbol1005" x="275" y="262.5" fill="#0064b0"></use></g><g><use xlink:href="#SvgjsSymbol1003" x="325" y="262.5" fill="hsl(212, 72%, 59%)"></use><use xlink:href="#SvgjsSymbol1004" x="325" y="262.5" fill="#84c1ff"></use><use xlink:href="#SvgjsSymbol1005" x="325" y="262.5" fill="#0064b0"></use></g><g><use xlink:href="#SvgjsSymbol1003" x="300" y="275" fill="hsl(212, 72%, 59%)"></use><use xlink:href="#SvgjsSymbol1004" x="300" y="275" fill="#84c1ff"></use><use xlink:href="#SvgjsSymbol1005" x="300" y="275" fill="#0064b0"></use></g><g><use xlink:href="#SvgjsSymbol1003" x="250" y="275" fill="hsl(212, 72%, 59%)"></use><use xlink:href="#SvgjsSymbol1004" x="250" y="275" fill="#84c1ff"></use><use xlink:href="#SvgjsSymbol1005" x="250" y="275" fill="#0064b0"></use></g><g><use xlink:href="#SvgjsSymbol1003" x="350" y="275" fill="hsl(212, 72%, 59%)"></use><use xlink:href="#SvgjsSymbol1004" x="350" y="275" fill="#84c1ff"></use><use xlink:href="#SvgjsSymbol1005" x="350" y="275" fill="#0064b0"></use></g><g><use xlink:href="#SvgjsSymbol1003" x="375" y="287.5" fill="hsl(212, 72%, 59%)"></use><use xlink:href="#SvgjsSymbol1004" x="375" y="287.5" fill="#84c1ff"></use><use xlink:href="#SvgjsSymbol1005" x="375" y="287.5" fill="#0064b0"></use></g><g><use xlink:href="#SvgjsSymbol1003" x="225" y="287.5" fill="hsl(212, 72%, 59%)"></use><use xlink:href="#SvgjsSymbol1004" x="225" y="287.5" fill="#84c1ff"></use><use xlink:href="#SvgjsSymbol1005" x="225" y="287.5" fill="#0064b0"></use></g><g><use xlink:href="#SvgjsSymbol1003" x="200" y="300" fill="hsl(212, 72%, 59%)"></use><use xlink:href="#SvgjsSymbol1004" x="200" y="300" fill="#84c1ff"></use><use xlink:href="#SvgjsSymbol1005" x="200" y="300" fill="#0064b0"></use></g><g><use xlink:href="#SvgjsSymbol1003" x="225" y="312.5" fill="hsl(212, 72%, 59%)"></use><use xlink:href="#SvgjsSymbol1004" x="225" y="312.5" fill="#84c1ff"></use><use xlink:href="#SvgjsSymbol1005" x="225" y="312.5" fill="#0064b0"></use></g><g><use xlink:href="#SvgjsSymbol1003" x="400" y="300" fill="hsl(212, 72%, 59%)"></use><use xlink:href="#SvgjsSymbol1004" x="400" y="300" fill="#84c1ff"></use><use xlink:href="#SvgjsSymbol1005" x="400" y="300" fill="#0064b0"></use></g><g><use xlink:href="#SvgjsSymbol1003" x="375" y="312.5" fill="hsl(212, 72%, 59%)"></use><use xlink:href="#SvgjsSymbol1004" x="375" y="312.5" fill="#84c1ff"></use><use xlink:href="#SvgjsSymbol1005" x="375" y="312.5" fill="#0064b0"></use></g><g><use xlink:href="#SvgjsSymbol1003" x="200" y="125" fill="hsl(212, 72%, 59%)"></use><use xlink:href="#SvgjsSymbol1004" x="200" y="125" fill="#84c1ff"></use><use xlink:href="#SvgjsSymbol1005" x="200" y="125" fill="#0064b0"></use></g><g><use xlink:href="#SvgjsSymbol1003" x="400" y="125" fill="hsl(212, 72%, 59%)"></use><use xlink:href="#SvgjsSymbol1004" x="400" y="125" fill="#84c1ff"></use><use xlink:href="#SvgjsSymbol1005" x="400" y="125" fill="#0064b0"></use></g><g><use xlink:href="#SvgjsSymbol1003" x="175" y="287.5" fill="hsl(212, 72%, 59%)"></use><use xlink:href="#SvgjsSymbol1004" x="175" y="287.5" fill="#84c1ff"></use><use xlink:href="#SvgjsSymbol1005" x="175" y="287.5" fill="#0064b0"></use></g><g><use xlink:href="#SvgjsSymbol1003" x="425" y="287.5" fill="hsl(212, 72%, 59%)"></use><use xlink:href="#SvgjsSymbol1004" x="425" y="287.5" fill="#84c1ff"></use><use xlink:href="#SvgjsSymbol1005" x="425" y="287.5" fill="#0064b0"></use></g><g><use xlink:href="#SvgjsSymbol1003" x="150" y="300" fill="hsl(212, 72%, 59%)"></use><use xlink:href="#SvgjsSymbol1004" x="150" y="300" fill="#84c1ff"></use><use xlink:href="#SvgjsSymbol1005" x="150" y="300" fill="#0064b0"></use></g><g><use xlink:href="#SvgjsSymbol1003" x="450" y="300" fill="hsl(212, 72%, 59%)"></use><use xlink:href="#SvgjsSymbol1004" x="450" y="300" fill="#84c1ff"></use><use xlink:href="#SvgjsSymbol1005" x="450" y="300" fill="#0064b0"></use></g><g><use xlink:href="#SvgjsSymbol1003" x="400" y="325" fill="hsl(212, 72%, 59%)"></use><use xlink:href="#SvgjsSymbol1004" x="400" y="325" fill="#84c1ff"></use><use xlink:href="#SvgjsSymbol1005" x="400" y="325" fill="#0064b0"></use></g><g><use xlink:href="#SvgjsSymbol1003" x="200" y="325" fill="hsl(212, 72%, 59%)"></use><use xlink:href="#SvgjsSymbol1004" x="200" y="325" fill="#84c1ff"></use><use xlink:href="#SvgjsSymbol1005" x="200" y="325" fill="#0064b0"></use></g><g><use xlink:href="#SvgjsSymbol1003" x="125" y="312.5" fill="hsl(212, 72%, 59%)"></use><use xlink:href="#SvgjsSymbol1004" x="125" y="312.5" fill="#84c1ff"></use><use xlink:href="#SvgjsSymbol1005" x="125" y="312.5" fill="#0064b0"></use></g><g><use xlink:href="#SvgjsSymbol1003" x="175" y="337.5" fill="hsl(212, 72%, 59%)"></use><use xlink:href="#SvgjsSymbol1004" x="175" y="337.5" fill="#84c1ff"></use><use xlink:href="#SvgjsSymbol1005" x="175" y="337.5" fill="#0064b0"></use></g><g><use xlink:href="#SvgjsSymbol1003" x="150" y="350" fill="hsl(212, 72%, 59%)"></use><use xlink:href="#SvgjsSymbol1004" x="150" y="350" fill="#84c1ff"></use><use xlink:href="#SvgjsSymbol1005" x="150" y="350" fill="#0064b0"></use></g><g><use xlink:href="#SvgjsSymbol1003" x="100" y="325" fill="hsl(212, 72%, 59%)"></use><use xlink:href="#SvgjsSymbol1004" x="100" y="325" fill="#84c1ff"></use><use xlink:href="#SvgjsSymbol1005" x="100" y="325" fill="#0064b0"></use></g><g><use xlink:href="#SvgjsSymbol1003" x="425" y="337.5" fill="hsl(212, 72%, 59%)"></use><use xlink:href="#SvgjsSymbol1004" x="425" y="337.5" fill="#84c1ff"></use><use xlink:href="#SvgjsSymbol1005" x="425" y="337.5" fill="#0064b0"></use></g><g><use xlink:href="#SvgjsSymbol1003" x="475" y="312.5" fill="hsl(212, 72%, 59%)"></use><use xlink:href="#SvgjsSymbol1004" x="475" y="312.5" fill="#84c1ff"></use><use xlink:href="#SvgjsSymbol1005" x="475" y="312.5" fill="#0064b0"></use></g><g><use xlink:href="#SvgjsSymbol1003" x="450" y="350" fill="hsl(212, 72%, 59%)"></use><use xlink:href="#SvgjsSymbol1004" x="450" y="350" fill="#84c1ff"></use><use xlink:href="#SvgjsSymbol1005" x="450" y="350" fill="#0064b0"></use></g><g><use xlink:href="#SvgjsSymbol1003" x="500" y="325" fill="hsl(212, 72%, 59%)"></use><use xlink:href="#SvgjsSymbol1004" x="500" y="325" fill="#84c1ff"></use><use xlink:href="#SvgjsSymbol1005" x="500" y="325" fill="#0064b0"></use></g><g><use xlink:href="#SvgjsSymbol1003" x="250" y="325" fill="hsl(212, 72%, 59%)"></use><use xlink:href="#SvgjsSymbol1004" x="250" y="325" fill="#84c1ff"></use><use xlink:href="#SvgjsSymbol1005" x="250" y="325" fill="#0064b0"></use></g><g><use xlink:href="#SvgjsSymbol1003" x="350" y="325" fill="hsl(212, 72%, 59%)"></use><use xlink:href="#SvgjsSymbol1004" x="350" y="325" fill="#84c1ff"></use><use xlink:href="#SvgjsSymbol1005" x="350" y="325" fill="#0064b0"></use></g><g><use xlink:href="#SvgjsSymbol1003" x="325" y="337.5" fill="hsl(212, 72%, 59%)"></use><use xlink:href="#SvgjsSymbol1004" x="325" y="337.5" fill="#84c1ff"></use><use xlink:href="#SvgjsSymbol1005" x="325" y="337.5" fill="#0064b0"></use></g><g><use xlink:href="#SvgjsSymbol1003" x="275" y="337.5" fill="hsl(212, 72%, 59%)"></use><use xlink:href="#SvgjsSymbol1004" x="275" y="337.5" fill="#84c1ff"></use><use xlink:href="#SvgjsSymbol1005" x="275" y="337.5" fill="#0064b0"></use></g><g><use xlink:href="#SvgjsSymbol1003" x="300" y="350" fill="hsl(212, 72%, 59%)"></use><use xlink:href="#SvgjsSymbol1004" x="300" y="350" fill="#84c1ff"></use><use xlink:href="#SvgjsSymbol1005" x="300" y="350" fill="#0064b0"></use></g><g><use xlink:href="#SvgjsSymbol1003" x="175" y="262.5" fill="hsl(212, 72%, 59%)"></use><use xlink:href="#SvgjsSymbol1004" x="175" y="262.5" fill="#84c1ff"></use><use xlink:href="#SvgjsSymbol1005" x="175" y="262.5" fill="#0064b0"></use></g><g><use xlink:href="#SvgjsSymbol1003" x="425" y="262.5" fill="hsl(212, 72%, 59%)"></use><use xlink:href="#SvgjsSymbol1004" x="425" y="262.5" fill="#84c1ff"></use><use xlink:href="#SvgjsSymbol1005" x="425" y="262.5" fill="#0064b0"></use></g><g><use xlink:href="#SvgjsSymbol1003" x="175" y="237.5" fill="hsl(212, 72%, 59%)"></use><use xlink:href="#SvgjsSymbol1004" x="175" y="237.5" fill="#84c1ff"></use><use xlink:href="#SvgjsSymbol1005" x="175" y="237.5" fill="#0064b0"></use></g><g><use xlink:href="#SvgjsSymbol1003" x="425" y="237.5" fill="hsl(212, 72%, 59%)"></use><use xlink:href="#SvgjsSymbol1004" x="425" y="237.5" fill="#84c1ff"></use><use xlink:href="#SvgjsSymbol1005" x="425" y="237.5" fill="#0064b0"></use></g><g><use xlink:href="#SvgjsSymbol1003" x="150" y="250" fill="hsl(212, 72%, 59%)"></use><use xlink:href="#SvgjsSymbol1004" x="150" y="250" fill="#84c1ff"></use><use xlink:href="#SvgjsSymbol1005" x="150" y="250" fill="#0064b0"></use></g><g><use xlink:href="#SvgjsSymbol1003" x="450" y="250" fill="hsl(212, 72%, 59%)"></use><use xlink:href="#SvgjsSymbol1004" x="450" y="250" fill="#84c1ff"></use><use xlink:href="#SvgjsSymbol1005" x="450" y="250" fill="#0064b0"></use></g><g><use xlink:href="#SvgjsSymbol1003" x="125" y="262.5" fill="hsl(212, 72%, 59%)"></use><use xlink:href="#SvgjsSymbol1004" x="125" y="262.5" fill="#84c1ff"></use><use xlink:href="#SvgjsSymbol1005" x="125" y="262.5" fill="#0064b0"></use></g><g><use xlink:href="#SvgjsSymbol1003" x="475" y="262.5" fill="hsl(212, 72%, 59%)"></use><use xlink:href="#SvgjsSymbol1004" x="475" y="262.5" fill="#84c1ff"></use><use xlink:href="#SvgjsSymbol1005" x="475" y="262.5" fill="#0064b0"></use></g><g><use xlink:href="#SvgjsSymbol1003" x="275" y="362.5" fill="hsl(212, 72%, 59%)"></use><use xlink:href="#SvgjsSymbol1004" x="275" y="362.5" fill="#84c1ff"></use><use xlink:href="#SvgjsSymbol1005" x="275" y="362.5" fill="#0064b0"></use></g><g><use xlink:href="#SvgjsSymbol1003" x="325" y="362.5" fill="hsl(212, 72%, 59%)"></use><use xlink:href="#SvgjsSymbol1004" x="325" y="362.5" fill="#84c1ff"></use><use xlink:href="#SvgjsSymbol1005" x="325" y="362.5" fill="#0064b0"></use></g><g><use xlink:href="#SvgjsSymbol1003" x="300" y="375" fill="hsl(212, 72%, 59%)"></use><use xlink:href="#SvgjsSymbol1004" x="300" y="375" fill="#84c1ff"></use><use xlink:href="#SvgjsSymbol1005" x="300" y="375" fill="#0064b0"></use></g><g><use xlink:href="#SvgjsSymbol1003" x="275" y="387.5" fill="hsl(212, 72%, 59%)"></use><use xlink:href="#SvgjsSymbol1004" x="275" y="387.5" fill="#84c1ff"></use><use xlink:href="#SvgjsSymbol1005" x="275" y="387.5" fill="#0064b0"></use></g><g><use xlink:href="#SvgjsSymbol1003" x="325" y="387.5" fill="hsl(212, 72%, 59%)"></use><use xlink:href="#SvgjsSymbol1004" x="325" y="387.5" fill="#84c1ff"></use><use xlink:href="#SvgjsSymbol1005" x="325" y="387.5" fill="#0064b0"></use></g><g><use xlink:href="#SvgjsSymbol1003" x="300" y="400" fill="hsl(212, 72%, 59%)"></use><use xlink:href="#SvgjsSymbol1004" x="300" y="400" fill="#84c1ff"></use><use xlink:href="#SvgjsSymbol1005" x="300" y="400" fill="#0064b0"></use></g><g><use xlink:href="#SvgjsSymbol1003" x="275" y="412.5" fill="hsl(212, 72%, 59%)"></use><use xlink:href="#SvgjsSymbol1004" x="275" y="412.5" fill="#84c1ff"></use><use xlink:href="#SvgjsSymbol1005" x="275" y="412.5" fill="#0064b0"></use></g><g><use xlink:href="#SvgjsSymbol1003" x="325" y="412.5" fill="hsl(212, 72%, 59%)"></use><use xlink:href="#SvgjsSymbol1004" x="325" y="412.5" fill="#84c1ff"></use><use xlink:href="#SvgjsSymbol1005" x="325" y="412.5" fill="#0064b0"></use></g><g><use xlink:href="#SvgjsSymbol1003" x="250" y="425" fill="hsl(212, 72%, 59%)"></use><use xlink:href="#SvgjsSymbol1004" x="250" y="425" fill="#84c1ff"></use><use xlink:href="#SvgjsSymbol1005" x="250" y="425" fill="#0064b0"></use></g><g><use xlink:href="#SvgjsSymbol1003" x="350" y="425" fill="hsl(212, 72%, 59%)"></use><use xlink:href="#SvgjsSymbol1004" x="350" y="425" fill="#84c1ff"></use><use xlink:href="#SvgjsSymbol1005" x="350" y="425" fill="#0064b0"></use></g><g><use xlink:href="#SvgjsSymbol1003" x="250" y="25" fill="hsl(212, 72%, 59%)"></use><use xlink:href="#SvgjsSymbol1004" x="250" y="25" fill="#84c1ff"></use><use xlink:href="#SvgjsSymbol1005" x="250" y="25" fill="#0064b0"></use></g><g><use xlink:href="#SvgjsSymbol1003" x="350" y="25" fill="hsl(212, 72%, 59%)"></use><use xlink:href="#SvgjsSymbol1004" x="350" y="25" fill="#84c1ff"></use><use xlink:href="#SvgjsSymbol1005" x="350" y="25" fill="#0064b0"></use></g><g><use xlink:href="#SvgjsSymbol1003" x="425" y="137.5" fill="hsl(212, 72%, 59%)"></use><use xlink:href="#SvgjsSymbol1004" x="425" y="137.5" fill="#84c1ff"></use><use xlink:href="#SvgjsSymbol1005" x="425" y="137.5" fill="#0064b0"></use></g><g><use xlink:href="#SvgjsSymbol1003" x="175" y="137.5" fill="hsl(212, 72%, 59%)"></use><use xlink:href="#SvgjsSymbol1004" x="175" y="137.5" fill="#84c1ff"></use><use xlink:href="#SvgjsSymbol1005" x="175" y="137.5" fill="#0064b0"></use></g><g><use xlink:href="#SvgjsSymbol1003" x="450" y="150" fill="hsl(212, 72%, 59%)"></use><use xlink:href="#SvgjsSymbol1004" x="450" y="150" fill="#84c1ff"></use><use xlink:href="#SvgjsSymbol1005" x="450" y="150" fill="#0064b0"></use></g><g><use xlink:href="#SvgjsSymbol1003" x="150" y="150" fill="hsl(212, 72%, 59%)"></use><use xlink:href="#SvgjsSymbol1004" x="150" y="150" fill="#84c1ff"></use><use xlink:href="#SvgjsSymbol1005" x="150" y="150" fill="#0064b0"></use></g><g><use xlink:href="#SvgjsSymbol1003" x="125" y="162.5" fill="hsl(212, 72%, 59%)"></use><use xlink:href="#SvgjsSymbol1004" x="125" y="162.5" fill="#84c1ff"></use><use xlink:href="#SvgjsSymbol1005" x="125" y="162.5" fill="#0064b0"></use></g><g><use xlink:href="#SvgjsSymbol1003" x="100" y="175" fill="hsl(212, 72%, 59%)"></use><use xlink:href="#SvgjsSymbol1004" x="100" y="175" fill="#84c1ff"></use><use xlink:href="#SvgjsSymbol1005" x="100" y="175" fill="#0064b0"></use></g><g><use xlink:href="#SvgjsSymbol1003" x="475" y="162.5" fill="hsl(212, 72%, 59%)"></use><use xlink:href="#SvgjsSymbol1004" x="475" y="162.5" fill="#84c1ff"></use><use xlink:href="#SvgjsSymbol1005" x="475" y="162.5" fill="#0064b0"></use></g><g><use xlink:href="#SvgjsSymbol1003" x="500" y="175" fill="hsl(212, 72%, 59%)"></use><use xlink:href="#SvgjsSymbol1004" x="500" y="175" fill="#84c1ff"></use><use xlink:href="#SvgjsSymbol1005" x="500" y="175" fill="#0064b0"></use></g><g><use xlink:href="#SvgjsSymbol1003" x="225" y="137.5" fill="hsl(212, 72%, 59%)"></use><use xlink:href="#SvgjsSymbol1004" x="225" y="137.5" fill="#84c1ff"></use><use xlink:href="#SvgjsSymbol1005" x="225" y="137.5" fill="#0064b0"></use></g><g><use xlink:href="#SvgjsSymbol1003" x="375" y="137.5" fill="hsl(212, 72%, 59%)"></use><use xlink:href="#SvgjsSymbol1004" x="375" y="137.5" fill="#84c1ff"></use><use xlink:href="#SvgjsSymbol1005" x="375" y="137.5" fill="#0064b0"></use></g><g><use xlink:href="#SvgjsSymbol1003" x="125" y="237.5" fill="hsl(212, 72%, 59%)"></use><use xlink:href="#SvgjsSymbol1004" x="125" y="237.5" fill="#84c1ff"></use><use xlink:href="#SvgjsSymbol1005" x="125" y="237.5" fill="#0064b0"></use></g><g><use xlink:href="#SvgjsSymbol1003" x="125" y="212.5" fill="hsl(212, 72%, 59%)"></use><use xlink:href="#SvgjsSymbol1004" x="125" y="212.5" fill="#84c1ff"></use><use xlink:href="#SvgjsSymbol1005" x="125" y="212.5" fill="#0064b0"></use></g><g><use xlink:href="#SvgjsSymbol1003" x="475" y="237.5" fill="hsl(212, 72%, 59%)"></use><use xlink:href="#SvgjsSymbol1004" x="475" y="237.5" fill="#84c1ff"></use><use xlink:href="#SvgjsSymbol1005" x="475" y="237.5" fill="#0064b0"></use></g><g><use xlink:href="#SvgjsSymbol1003" x="475" y="212.5" fill="hsl(212, 72%, 59%)"></use><use xlink:href="#SvgjsSymbol1004" x="475" y="212.5" fill="#84c1ff"></use><use xlink:href="#SvgjsSymbol1005" x="475" y="212.5" fill="#0064b0"></use></g><g><use xlink:href="#SvgjsSymbol1003" x="475" y="187.5" fill="hsl(212, 72%, 59%)"></use><use xlink:href="#SvgjsSymbol1004" x="475" y="187.5" fill="#84c1ff"></use><use xlink:href="#SvgjsSymbol1005" x="475" y="187.5" fill="#0064b0"></use></g><g><use xlink:href="#SvgjsSymbol1003" x="125" y="187.5" fill="hsl(212, 72%, 59%)"></use><use xlink:href="#SvgjsSymbol1004" x="125" y="187.5" fill="#84c1ff"></use><use xlink:href="#SvgjsSymbol1005" x="125" y="187.5" fill="#0064b0"></use></g><g><use xlink:href="#SvgjsSymbol1003" x="75" y="337.5" fill="hsl(212, 72%, 59%)"></use><use xlink:href="#SvgjsSymbol1004" x="75" y="337.5" fill="#84c1ff"></use><use xlink:href="#SvgjsSymbol1005" x="75" y="337.5" fill="#0064b0"></use></g><g><use xlink:href="#SvgjsSymbol1003" x="125" y="362.5" fill="hsl(212, 72%, 59%)"></use><use xlink:href="#SvgjsSymbol1004" x="125" y="362.5" fill="#84c1ff"></use><use xlink:href="#SvgjsSymbol1005" x="125" y="362.5" fill="#0064b0"></use></g><g><use xlink:href="#SvgjsSymbol1003" x="50" y="350" fill="hsl(212, 72%, 59%)"></use><use xlink:href="#SvgjsSymbol1004" x="50" y="350" fill="#84c1ff"></use><use xlink:href="#SvgjsSymbol1005" x="50" y="350" fill="#0064b0"></use></g><g><use xlink:href="#SvgjsSymbol1003" x="75" y="362.5" fill="hsl(212, 72%, 59%)"></use><use xlink:href="#SvgjsSymbol1004" x="75" y="362.5" fill="#84c1ff"></use><use xlink:href="#SvgjsSymbol1005" x="75" y="362.5" fill="#0064b0"></use></g><g><use xlink:href="#SvgjsSymbol1003" x="100" y="375" fill="hsl(212, 72%, 59%)"></use><use xlink:href="#SvgjsSymbol1004" x="100" y="375" fill="#84c1ff"></use><use xlink:href="#SvgjsSymbol1005" x="100" y="375" fill="#0064b0"></use></g><g><use xlink:href="#SvgjsSymbol1003" x="525" y="337.5" fill="hsl(212, 72%, 59%)"></use><use xlink:href="#SvgjsSymbol1004" x="525" y="337.5" fill="#84c1ff"></use><use xlink:href="#SvgjsSymbol1005" x="525" y="337.5" fill="#0064b0"></use></g><g><use xlink:href="#SvgjsSymbol1003" x="475" y="362.5" fill="hsl(212, 72%, 59%)"></use><use xlink:href="#SvgjsSymbol1004" x="475" y="362.5" fill="#84c1ff"></use><use xlink:href="#SvgjsSymbol1005" x="475" y="362.5" fill="#0064b0"></use></g><g><use xlink:href="#SvgjsSymbol1003" x="550" y="350" fill="hsl(212, 72%, 59%)"></use><use xlink:href="#SvgjsSymbol1004" x="550" y="350" fill="#84c1ff"></use><use xlink:href="#SvgjsSymbol1005" x="550" y="350" fill="#0064b0"></use></g><g><use xlink:href="#SvgjsSymbol1003" x="525" y="362.5" fill="hsl(212, 72%, 59%)"></use><use xlink:href="#SvgjsSymbol1004" x="525" y="362.5" fill="#84c1ff"></use><use xlink:href="#SvgjsSymbol1005" x="525" y="362.5" fill="#0064b0"></use></g><g><use xlink:href="#SvgjsSymbol1003" x="500" y="375" fill="hsl(212, 72%, 59%)"></use><use xlink:href="#SvgjsSymbol1004" x="500" y="375" fill="#84c1ff"></use><use xlink:href="#SvgjsSymbol1005" x="500" y="375" fill="#0064b0"></use></g><g><use xlink:href="#SvgjsSymbol1003" x="275" y="37.5" fill="hsl(212, 72%, 59%)"></use><use xlink:href="#SvgjsSymbol1004" x="275" y="37.5" fill="#84c1ff"></use><use xlink:href="#SvgjsSymbol1005" x="275" y="37.5" fill="#0064b0"></use></g><g><use xlink:href="#SvgjsSymbol1003" x="325" y="37.5" fill="hsl(212, 72%, 59%)"></use><use xlink:href="#SvgjsSymbol1004" x="325" y="37.5" fill="#84c1ff"></use><use xlink:href="#SvgjsSymbol1005" x="325" y="37.5" fill="#0064b0"></use></g><g><use xlink:href="#SvgjsSymbol1003" x="300" y="50" fill="hsl(212, 72%, 59%)"></use><use xlink:href="#SvgjsSymbol1004" x="300" y="50" fill="#84c1ff"></use><use xlink:href="#SvgjsSymbol1005" x="300" y="50" fill="#0064b0"></use></g><g><use xlink:href="#SvgjsSymbol1003" x="225" y="437.5" fill="hsl(212, 72%, 59%)"></use><use xlink:href="#SvgjsSymbol1004" x="225" y="437.5" fill="#84c1ff"></use><use xlink:href="#SvgjsSymbol1005" x="225" y="437.5" fill="#0064b0"></use></g><g><use xlink:href="#SvgjsSymbol1003" x="375" y="437.5" fill="hsl(212, 72%, 59%)"></use><use xlink:href="#SvgjsSymbol1004" x="375" y="437.5" fill="#84c1ff"></use><use xlink:href="#SvgjsSymbol1005" x="375" y="437.5" fill="#0064b0"></use></g><g><use xlink:href="#SvgjsSymbol1003" x="250" y="450" fill="hsl(212, 72%, 59%)"></use><use xlink:href="#SvgjsSymbol1004" x="250" y="450" fill="#84c1ff"></use><use xlink:href="#SvgjsSymbol1005" x="250" y="450" fill="#0064b0"></use></g><g><use xlink:href="#SvgjsSymbol1003" x="350" y="450" fill="hsl(212, 72%, 59%)"></use><use xlink:href="#SvgjsSymbol1004" x="350" y="450" fill="#84c1ff"></use><use xlink:href="#SvgjsSymbol1005" x="350" y="450" fill="#0064b0"></use></g><g><use xlink:href="#SvgjsSymbol1003" x="325" y="462.5" fill="hsl(212, 72%, 59%)"></use><use xlink:href="#SvgjsSymbol1004" x="325" y="462.5" fill="#84c1ff"></use><use xlink:href="#SvgjsSymbol1005" x="325" y="462.5" fill="#0064b0"></use></g><g><use xlink:href="#SvgjsSymbol1003" x="275" y="462.5" fill="hsl(212, 72%, 59%)"></use><use xlink:href="#SvgjsSymbol1004" x="275" y="462.5" fill="#84c1ff"></use><use xlink:href="#SvgjsSymbol1005" x="275" y="462.5" fill="#0064b0"></use></g><g><use xlink:href="#SvgjsSymbol1003" x="300" y="475" fill="hsl(212, 72%, 59%)"></use><use xlink:href="#SvgjsSymbol1004" x="300" y="475" fill="#84c1ff"></use><use xlink:href="#SvgjsSymbol1005" x="300" y="475" fill="#0064b0"></use></g></g><g></g></svg>